<svg width="30" height="30" viewBox="0 0 30 30" fill="none" xmlns="http://www.w3.org/2000/svg">
<rect x="0.5" y="0.5" width="29" height="29" rx="14.5" fill="#373737"/>
<rect x="0.5" y="0.5" width="29" height="29" rx="14.5" stroke="url(#paint0_linear_526_261)"/>
<path d="M17.0277 21.4167C16.2711 21.4167 15.6233 21.1475 15.0843 20.6091C14.5453 20.0707 14.2768 19.4232 14.2786 18.6667C14.2804 17.9101 14.5493 17.2627 15.0853 16.7243C15.6212 16.1859 16.269 15.9167 17.0286 15.9167C17.38 15.9167 17.7133 15.9793 18.0287 16.1046C18.344 16.2299 18.6218 16.4175 18.8619 16.6674V9.04169C18.8619 8.83208 18.9334 8.65639 19.0764 8.51461C19.2194 8.37283 19.397 8.30164 19.609 8.30103H22.6001C22.8122 8.30103 22.9882 8.37222 23.1281 8.51461C23.2687 8.65639 23.3389 8.83208 23.3389 9.04169V9.67603C23.3389 9.88564 23.268 10.0616 23.1263 10.204C22.9845 10.3464 22.8082 10.4173 22.5973 10.4167H19.7777V18.6667C19.7777 19.4232 19.5082 20.0707 18.9692 20.6091C18.4302 21.1475 17.783 21.4167 17.0277 21.4167ZM10.3708 11.9879C9.56723 12.7915 8.91854 13.7188 8.42476 14.7699C7.93098 15.8211 7.65232 16.9461 7.58876 18.1451C7.58204 18.2875 7.53468 18.4097 7.44668 18.5118C7.35868 18.6138 7.2499 18.6655 7.12034 18.6667C6.97796 18.6667 6.86612 18.6117 6.78484 18.5017C6.70357 18.3917 6.66629 18.2652 6.67301 18.1222C6.74818 16.793 7.05557 15.5488 7.59518 14.3895C8.1354 13.2302 8.84276 12.2134 9.71726 11.3389C10.5918 10.4644 11.6056 9.75975 12.7588 9.22503C13.9119 8.6903 15.1531 8.38566 16.4823 8.31111C16.6247 8.30378 16.7512 8.34105 16.8618 8.42294C16.9724 8.50483 17.0274 8.61391 17.0268 8.75019C17.0262 8.88647 16.9748 8.9983 16.8728 9.08569C16.7707 9.17308 16.6485 9.22044 16.5061 9.22778C15.3071 9.29133 14.1857 9.56603 13.1419 10.0519C12.0981 10.5377 11.1745 11.1836 10.3708 11.9879ZM13.0484 14.6819C12.5925 15.1384 12.2213 15.6637 11.9347 16.2577C11.6481 16.8517 11.4763 17.4918 11.4195 18.1781C11.3969 18.3199 11.3416 18.4369 11.2536 18.5292C11.1656 18.6215 11.0568 18.6673 10.9273 18.6667C10.7977 18.6661 10.6898 18.6147 10.6037 18.5127C10.5181 18.4094 10.4787 18.2927 10.4854 18.1625C10.5453 17.3497 10.743 16.5938 11.0785 15.8947C11.4146 15.1962 11.8534 14.5759 12.3948 14.0339C12.9363 13.4918 13.5566 13.053 14.2557 12.7175C14.9548 12.382 15.7104 12.1843 16.5226 12.1244C16.6534 12.1177 16.7701 12.1568 16.8728 12.2418C16.9754 12.3267 17.0271 12.4349 17.0277 12.5663C17.0283 12.6977 16.9825 12.8067 16.8902 12.8935C16.7979 12.9803 16.6809 13.0353 16.5391 13.0585C15.8528 13.1154 15.2136 13.2865 14.6214 13.5719C14.0287 13.8566 13.5043 14.227 13.0484 14.6829" fill="#FBFBFB"/>
<defs>
<linearGradient id="paint0_linear_526_261" x1="0" y1="15" x2="30" y2="15" gradientUnits="userSpaceOnUse">
<stop stop-color="#D835C8"/>
<stop offset="1" stop-color="#A60095"/>
</linearGradient>
</defs>
</svg>
